<svg version="1.1" id="Layer_1" xmlns="http://www.w3.org/2000/svg" xmlns:xlink="http://www.w3.org/1999/xlink" x="0px" y="0px" width="100%" viewBox="0 0 1024 1024" enable-background="new 0 0 1024 1024" xml:space="preserve">
<path fill="#FFFFFF" opacity="1.000000" stroke="none" d="
M558.000000,1025.000000 
	C528.312439,1025.000000 498.624878,1025.000000 468.771484,1024.621948 
	C463.845123,1023.495972 459.096619,1022.658081 454.321564,1022.018616 
	C443.840088,1020.614929 433.241760,1019.845459 422.880646,1017.838684 
	C408.353546,1015.024902 393.922028,1011.619629 379.587372,1007.931824 
	C354.240448,1001.411072 329.482208,992.946594 305.812592,981.820007 
	C286.922058,972.939880 268.197327,963.485046 250.298157,952.781616 
	C233.030228,942.455688 216.622528,930.600281 200.388031,918.667053 
	C188.448441,909.890808 176.915329,900.422852 166.078781,890.321594 
	C153.951553,879.017212 142.535385,866.906128 131.332397,854.667725 
	C121.962212,844.431580 112.460999,834.118713 104.586540,822.752930 
	C90.109711,801.857300 75.947845,780.648682 63.204361,758.671997 
	C48.701153,733.660522 37.154705,707.068176 28.135437,679.557800 
	C22.442993,662.194885 17.502773,644.541870 13.188721,626.784912 
	C9.988481,613.612427 8.152256,600.092346 6.063625,586.671814 
	C4.711098,577.981079 4.047214,569.184631 2.925266,560.454712 
	C2.811392,559.568665 1.666456,558.815063 0.999995,558.000000 
	C1.000000,528.312439 1.000000,498.624878 1.437841,468.460144 
	C2.245640,467.548065 2.883682,467.148743 2.946691,466.673187 
	C4.997813,451.193756 6.082247,435.519684 9.217178,420.266449 
	C13.613400,398.876221 18.611479,377.514008 25.069265,356.671875 
	C30.789457,338.210266 38.153755,320.160156 46.085281,302.509430 
	C53.909180,285.098206 62.456661,267.871918 72.331329,251.560120 
	C83.176910,233.644501 95.520370,216.586517 107.935799,199.687195 
	C116.611717,187.877914 125.868736,176.351334 136.011032,165.798798 
	C149.768982,151.484390 164.179153,137.715317 179.135254,124.658104 
	C192.708435,112.808243 206.957474,101.617210 221.669128,91.210983 
	C251.171951,70.342278 282.944824,53.308025 316.285065,39.465260 
	C342.517120,28.573805 369.515625,19.857904 397.364960,13.742619 
	C419.907104,8.792706 442.485382,4.511757 465.534088,2.921750 
	C466.396149,2.862282 467.179810,1.666336 468.000000,0.999998 
	C497.687561,1.000000 527.375122,1.000000 557.228516,1.378054 
	C558.572571,2.170680 559.724243,2.830113 560.933228,2.961184 
	C570.837646,4.034991 580.883728,4.318159 590.636353,6.164748 
	C608.988708,9.639653 627.226868,13.772573 645.415894,18.043402 
	C673.925598,24.737574 701.220154,35.089439 727.685974,47.423649 
	C755.737366,60.496822 782.989502,75.177025 807.683899,94.035011 
	C825.118347,107.348869 842.670593,120.599312 859.154541,135.037689 
	C871.725464,146.048721 883.296143,158.366364 894.240601,171.028656 
	C908.275330,187.266327 921.987610,203.892975 934.491394,221.318878 
	C955.651062,250.808334 972.638977,282.816223 986.547852,316.305267 
	C997.440796,342.532715 1006.150146,369.529205 1012.261536,397.374756 
	C1017.208313,419.913788 1021.489807,442.489136 1023.078247,465.534729 
	C1023.137634,466.396545 1024.333618,467.180023 1025.000000,468.000000 
	C1025.000000,497.687561 1025.000000,527.375122 1024.562256,557.539795 
	C1023.754395,558.452026 1023.116394,558.851562 1023.053284,559.327332 
	C1021.002197,574.806763 1019.917664,590.480896 1016.782715,605.734131 
	C1012.386353,627.124207 1007.388428,648.486389 1000.930664,669.328491 
	C995.210449,687.790100 987.846008,705.840210 979.914490,723.490906 
	C972.090515,740.902100 963.543030,758.128357 953.668396,774.440125 
	C942.822876,792.355774 930.479553,809.413757 918.064087,826.313049 
	C909.388123,838.122253 900.131042,849.648804 889.988831,860.201477 
	C876.230896,874.515930 861.820740,888.285034 846.864563,901.342102 
	C833.291321,913.191956 819.042236,924.382935 804.330627,934.789185 
	C774.827820,955.657776 743.054993,972.692078 709.714783,986.534790 
	C683.482727,997.426270 656.484314,1006.142151 628.635010,1012.257385 
	C606.092834,1017.207275 583.514648,1021.488281 560.465881,1023.078247 
	C559.603821,1023.137756 558.820190,1024.333618 558.000000,1025.000000 
M83.997147,416.462708 
	C83.694550,417.204956 83.226311,417.922943 83.113495,418.692993 
	C80.053802,439.577454 76.122108,460.388031 74.290886,481.381409 
	C72.847717,497.926239 73.481438,514.718323 74.152512,531.361938 
	C74.758423,546.389648 76.311684,561.407715 78.118263,576.348938 
	C79.416443,587.085449 81.495735,597.758789 83.794609,608.336792 
	C89.052368,632.529663 96.410065,656.060242 105.878502,678.990662 
	C115.722137,702.829773 127.037682,725.899475 141.160858,747.428955 
	C151.615295,763.365845 163.211670,778.561951 174.528839,793.918945 
	C177.429764,797.855408 181.199600,801.151428 185.000000,805.199402 
	C185.000000,803.507751 184.997513,802.674927 185.000366,801.842102 
	C185.333313,704.429199 185.574539,607.015747 186.126740,509.604095 
	C186.189590,498.516083 187.247452,487.305725 189.172546,476.386322 
	C192.049301,460.069061 195.365417,443.752258 199.833420,427.810455 
	C206.656845,403.464508 217.194519,380.595947 229.964676,358.727783 
	C240.288864,341.048218 252.117554,324.448944 265.587494,309.122101 
	C274.284088,299.226685 283.676270,289.820526 293.591919,281.150238 
	C305.325195,270.890686 317.585785,261.135529 330.295441,252.116638 
	C345.646423,241.223450 362.200409,232.290375 379.526276,224.740784 
	C396.035217,217.547180 412.745911,210.967041 430.330231,207.110031 
	C444.999878,203.892349 459.814880,201.136612 474.694702,199.138535 
	C487.678619,197.395035 500.830505,196.492477 513.931519,196.171738 
	C523.077820,195.947800 532.306824,196.975693 541.421448,198.082397 
	C555.271912,199.764130 569.147339,201.512146 582.847107,204.104218 
	C608.524963,208.962585 633.139099,217.500763 656.366455,229.318787 
	C671.954285,237.249802 687.074219,246.368027 701.455383,256.324493 
	C714.677551,265.478577 727.205566,275.849121 738.973022,286.826843 
	C749.408081,296.561615 758.551636,307.715881 767.952698,318.515686 
	C781.908630,334.547943 792.971619,352.572876 802.991333,371.233948 
	C815.965027,395.396606 825.776245,420.876495 831.669495,447.611725 
	C835.465820,464.834290 837.960327,482.422455 839.766724,499.977600 
	C840.988953,511.856079 840.389893,523.978333 839.890198,535.961731 
	C839.392395,547.898132 838.758118,559.922302 836.816101,571.682129 
	C834.248474,587.230957 830.985291,602.731567 826.876831,617.943909 
	C820.534241,641.428406 810.627197,663.533386 798.730164,684.768799 
	C786.475464,706.642700 772.122437,727.077332 754.934265,745.228699 
	C742.710999,758.136963 729.701721,770.575500 715.631653,781.386597 
	C700.225342,793.224365 683.826660,804.132568 666.697937,813.265747 
	C649.366394,822.506897 630.959229,830.085693 612.370056,836.499695 
	C597.853699,841.508423 582.449097,844.287781 567.234009,846.829285 
	C552.131042,849.352051 536.803040,851.171997 521.515076,851.751404 
	C507.890289,852.267761 494.147095,851.092896 480.527527,849.869690 
	C469.072632,848.840820 457.654266,847.024475 446.337921,844.920776 
	C428.146118,841.539001 410.485657,836.197083 393.376312,829.090027 
	C386.039154,826.042175 378.663544,823.087036 371.000244,819.965454 
	C371.000244,855.656128 370.966370,890.979675 371.138733,926.302185 
	C371.144867,927.558289 372.954285,929.462646 374.323486,929.957458 
	C398.967834,938.865234 424.407928,944.330505 450.324249,948.128540 
	C474.159271,951.621704 498.057617,953.091553 522.093506,952.956177 
	C526.014221,952.934021 529.929993,952.312073 533.850891,952.003967 
	C546.767029,950.989075 559.820251,950.834778 572.568420,948.782043 
	C590.218079,945.940186 607.714844,942.002625 625.139221,937.942627 
	C651.003052,931.916077 675.633179,922.341614 699.655579,911.072876 
	C724.225159,899.547546 747.819031,886.299438 769.388184,869.868103 
	C785.733948,857.416016 801.570129,844.203247 816.816589,830.425354 
	C832.822083,815.961487 846.891235,799.604919 860.175598,782.526855 
	C874.887390,763.613831 888.174927,743.791809 899.513794,722.766968 
	C913.781433,696.311462 925.674133,668.776428 934.066650,639.808350 
	C940.178284,618.713135 945.050720,597.408997 948.144653,575.620972 
	C951.365112,552.941528 953.204468,530.219727 952.909485,507.351074 
	C952.773865,496.840576 951.813599,486.330566 950.957581,475.842377 
	C950.147217,465.912750 949.611938,455.897491 947.830872,446.124878 
	C945.060059,430.920990 941.545105,415.841125 937.971008,400.797699 
	C931.869324,375.115021 922.456848,350.595856 911.293945,326.713684 
	C899.806824,302.138000 886.518738,278.552521 870.174316,256.930237 
	C857.885010,240.672577 844.764099,224.966446 831.058472,209.882416 
	C821.198364,199.030655 810.081604,189.240372 798.943787,179.652267 
	C787.738403,170.006042 776.200073,160.647400 764.124329,152.131714 
	C738.425476,134.009171 711.024048,118.736862 681.782837,107.099831 
	C665.125427,100.470749 648.246338,94.161644 631.032898,89.221207 
	C602.965515,81.165596 574.157776,76.229401 545.034241,74.209808 
	C528.443298,73.059288 511.686432,73.480194 495.042847,74.150887 
	C479.848694,74.763161 464.662689,76.302002 449.556274,78.122543 
	C438.823090,79.416046 428.168365,81.576797 417.583527,83.840942 
	C393.365265,89.021324 369.845337,96.430588 346.922241,105.902176 
	C323.089722,115.749550 300.174042,127.300819 278.440002,141.132645 
	C257.584412,154.405396 237.443680,168.748077 219.664078,185.990707 
	C204.256805,200.932663 188.711258,215.879318 174.772980,232.148529 
	C159.978668,249.416946 147.041351,268.223572 135.407074,287.916229 
	C121.388985,311.643829 109.056679,336.138214 100.107895,362.170715 
	C94.065575,379.748199 89.325165,397.773224 83.997147,416.462708 
z" data-index="0" style="opacity: 1;"></path>





</svg>